{
  "accessors": [
    {
      "bufferView": 1,
      "componentType": 5126,
      "count": 65532,
      "max": [
        46.57143783569336,
        41.1595573425293,
        139.06924438476563
      ],
      "min": [
        -47.03260040283203,
        -39.678802490234375,
        -5.960464477539063e-08
      ],
      "type": "VEC3"
    },
    {
      "bufferView": 1,
      "byteOffset": 786384,
      "componentType": 5126,
      "count": 65532,
      "max": [
        0.9999992251396179,
        0.9999990463256836,
        0.9999992251396179
      ],
      "min": [
        -0.999996542930603,
        -0.9999725222587585,
        -1.0
      ],
      "type": "VEC3"
    },
    {
      "bufferView": 0,
      "componentType": 5125,
      "count": 346047,
      "type": "SCALAR"
    },
    {
      "bufferView": 1,
      "byteOffset": 1572768,
      "componentType": 5126,
      "count": 65532,
      "max": [
        46.204322814941406,
        39.71919250488281,
        100.34723663330078
      ],
      "min": [
        -39.64632797241211,
        -35.17239761352539,
        15.045828819274902
      ],
      "type": "VEC3"
    },
    {
      "bufferView": 1,
      "byteOffset": 2359152,
      "componentType": 5126,
      "count": 65532,
      "max": [
        0.999965488910675,
        0.9999914169311523,
        0.9999943971633911
      ],
      "min": [
        -0.9999855160713196,
        -0.9999998807907104,
        -0.9948826432228088
      ],
      "type": "VEC3"
    },
    {
      "bufferView": 0,
      "byteOffset": 1384188,
      "componentType": 5125,
      "count": 336267,
      "type": "SCALAR"
    },
    {
      "bufferView": 1,
      "byteOffset": 3145536,
      "componentType": 5126,
      "count": 65532,
      "max": [
        45.39146423339844,
        40.53793716430664,
        99.57653045654297
      ],
      "min": [
        -40.77391815185547,
        -41.1595573425293,
        -5.960464477539063e-08
      ],
      "type": "VEC3"
    },
    {
      "bufferView": 1,
      "byteOffset": 3931920,
      "componentType": 5126,
      "count": 65532,
      "max": [
        0.999998927116394,
        0.9999322891235352,
        0.9999961256980896
      ],
      "min": [
        -0.9999880194664001,
        -0.999999463558197,
        -1.0
      ],
      "type": "VEC3"
    },
    {
      "bufferView": 0,
      "byteOffset": 2729256,
      "componentType": 5125,
      "count": 341640,
      "type": "SCALAR"
    },
    {
      "bufferView": 1,
      "byteOffset": 4718304,
      "componentType": 5126,
      "count": 65532,
      "max": [
        47.0326042175293,
        41.09098434448242,
        100.12508392333984
      ],
      "min": [
        -39.34468460083008,
        -41.152496337890625,
        -5.960464477539063e-08
      ],
      "type": "VEC3"
    },
    {
      "bufferView": 1,
      "byteOffset": 5504688,
      "componentType": 5126,
      "count": 65532,
      "max": [
        1.0,
        0.9999618530273438,
        0.9999992251396179
      ],
      "min": [
        -0.9999942183494568,
        -0.999999463558197,
        -1.0
      ],
      "type": "VEC3"
    },
    {
      "bufferView": 0,
      "byteOffset": 4095816,
      "componentType": 5125,
      "count": 283950,
      "type": "SCALAR"
    },
    {
      "bufferView": 1,
      "byteOffset": 6291072,
      "componentType": 5126,
      "count": 2485,
      "max": [
        -16.72922134399414,
        28.03447151184082,
        91.4845962524414
      ],
      "min": [
        -40.38457107543945,
        -37.9190788269043,
        16.702159881591797
      ],
      "type": "VEC3"
    },
    {
      "bufferView": 1,
      "byteOffset": 6320892,
      "componentType": 5126,
      "count": 2485,
      "max": [
        0.8373393416404724,
        0.9909618496894836,
        0.9997497200965881
      ],
      "min": [
        -0.9999828934669495,
        -0.9996606707572937,
        -0.8128283023834229
      ],
      "type": "VEC3"
    },
    {
      "bufferView": 0,
      "byteOffset": 5231616,
      "componentType": 5125,
      "count": 5070,
      "type": "SCALAR"
    }
  ],
  "asset": {
    "extras": {
      "author": "AussiePie (https://sketchfab.com/AussiePie)",
      "license": "CC-BY-4.0 (http://creativecommons.org/licenses/by/4.0/)",
      "source": "https://sketchfab.com/3d-models/yoda-buddah-c9dfd74bbc8e4a28b9a6331c74db93d0",
      "title": "Yoda Buddah"
    },
    "generator": "Sketchfab-12.67.0",
    "version": "2.0"
  },
  "bufferViews": [
    {
      "buffer": 0,
      "byteLength": 5251896,
      "name": "floatBufferViews",
      "target": 34963
    },
    {
      "buffer": 0,
      "byteLength": 6350712,
      "byteOffset": 5251896,
      "byteStride": 12,
      "name": "floatBufferViews",
      "target": 34962
    }
  ],
  "buffers": [
    {
      "byteLength": 11602608,
      "uri": "scene.bin"
    }
  ],
  "materials": [
    {
      "doubleSided": true,
      "name": "Scene_-_Root",
      "pbrMetallicRoughness": {
        "metallicFactor": 0.0,
        "roughnessFactor": 0.6
      }
    }
  ],
  "meshes": [
    {
      "name": "Object_0",
      "primitives": [
        {
          "attributes": {
            "NORMAL": 1,
            "POSITION": 0
          },
          "indices": 2,
          "material": 0,
          "mode": 4
        }
      ]
    },
    {
      "name": "Object_1",
      "primitives": [
        {
          "attributes": {
            "NORMAL": 4,
            "POSITION": 3
          },
          "indices": 5,
          "material": 0,
          "mode": 4
        }
      ]
    },
    {
      "name": "Object_2",
      "primitives": [
        {
          "attributes": {
            "NORMAL": 7,
            "POSITION": 6
          },
          "indices": 8,
          "material": 0,
          "mode": 4
        }
      ]
    },
    {
      "name": "Object_3",
      "primitives": [
        {
          "attributes": {
            "NORMAL": 10,
            "POSITION": 9
          },
          "indices": 11,
          "material": 0,
          "mode": 4
        }
      ]
    },
    {
      "name": "Object_4",
      "primitives": [
        {
          "attributes": {
            "NORMAL": 13,
            "POSITION": 12
          },
          "indices": 14,
          "material": 0,
          "mode": 4
        }
      ]
    }
  ],
  "nodes": [
    {
      "children": [
        1
      ],
      "matrix": [
        1.0,
        0.0,
        0.0,
        0.0,
        0.0,
        2.220446049250313e-16,
        -1.0,
        0.0,
        0.0,
        1.0,
        2.220446049250313e-16,
        0.0,
        0.0,
        0.0,
        0.0,
        1.0
      ],
      "name": "Sketchfab_model"
    },
    {
      "children": [
        2,
        3,
        4,
        5,
        6
      ],
      "name": "Husson_Thomas_Yoda_Buddah_16_09_2020.stl.cleaner.materialmerger.gles"
    },
    {
      "mesh": 0,
      "name": "Object_2"
    },
    {
      "mesh": 1,
      "name": "Object_3"
    },
    {
      "mesh": 2,
      "name": "Object_4"
    },
    {
      "mesh": 3,
      "name": "Object_5"
    },
    {
      "mesh": 4,
      "name": "Object_6"
    }
  ],
  "scene": 0,
  "scenes": [
    {
      "name": "Sketchfab_Scene",
      "nodes": [
        0
      ]
    }
  ]
}
